<svg width="24" height="30" viewBox="0 0 24 30" fill="none" xmlns="http://www.w3.org/2000/svg">
<path d="M10.9126 21.7031C11.3035 21.7937 11.7145 21.8554 12.106 21.732C11.9197 21.9505 11.7106 22.148 11.5043 22.3476C11.3391 22.1051 11.1234 21.9049 10.9126 21.7031Z" fill="white"/>
<path d="M10.1152 0.321235C10.886 0.0109261 11.7535 -0.0997397 12.5665 0.101572C13.4791 0.334582 14.2577 0.956869 14.801 1.71262C15.3265 2.44335 15.5417 3.36872 15.4461 4.25905C15.8609 3.54611 16.4921 2.97555 17.2023 2.56514C18.0286 2.12081 18.9529 1.83497 19.8961 1.82496C19.8193 2.80371 20.1558 3.78691 20.7247 4.57714C21.05 5.04094 21.5077 5.39184 21.8363 5.85341C22.2801 6.45234 22.596 7.16639 22.6382 7.91769C22.6888 8.78022 22.388 9.63162 21.9236 10.3484C21.3931 11.1515 20.5378 11.7059 19.6052 11.9217C20.2375 12.0668 20.8292 12.3532 21.3547 12.7314C22.2473 13.4037 22.9157 14.3502 23.3084 15.3929C22.1027 15.7016 21.0839 16.5952 20.5456 17.708C20.2553 18.3058 19.8588 18.8575 19.3616 19.3007C18.5825 19.9708 17.5003 20.2605 16.4888 20.0982C16.04 20.0459 15.5979 19.9285 15.1892 19.7356C14.5168 19.4147 13.9741 18.8686 13.5998 18.2296C13.6771 19.2912 13.394 20.3723 12.814 21.2638C12.4442 21.8466 11.9887 22.3849 11.4287 22.7936C11.0244 22.1574 10.4344 21.6503 9.76542 21.3094C9.2766 21.0758 8.75163 20.9284 8.21721 20.8456C7.234 20.6854 6.25192 20.2516 5.61684 19.4597C5.06518 18.8013 4.83106 17.936 4.77711 17.0929C4.73151 16.132 5.09298 15.1733 5.72862 14.4559C4.15761 15.131 2.2913 14.8335 0.86377 13.9493V13.7357C1.56502 12.7447 1.80026 11.4601 1.55446 10.2767C1.32756 9.11833 1.49106 7.80703 2.28963 6.89167C3.09377 5.98021 4.30776 5.39629 5.53453 5.47025C6.01112 5.48249 6.46769 5.62986 6.90256 5.8156C6.34145 5.20666 5.9911 4.42866 5.82149 3.62341C5.63853 2.68248 5.67745 1.69093 5.96997 0.775021C6.88421 1.15818 7.93359 1.1465 8.8723 0.855101C9.30607 0.726083 9.6959 0.487512 10.1152 0.321235ZM11.0161 0.380183C11.6662 0.737205 12.2751 1.17987 12.7628 1.74321C13.4802 2.52621 13.8723 3.58171 13.8873 4.63998C14.3483 4.48038 14.796 4.25071 15.1625 3.92483C15.1586 3.50886 15.1091 3.09011 14.9667 2.69749C14.7059 1.96788 14.1854 1.34615 13.562 0.89514C12.8329 0.384076 11.8875 0.168305 11.0161 0.380183ZM9.24712 1.04807C9.93559 1.4785 10.5757 2.01292 11.0322 2.69082C11.4732 3.32311 11.6846 4.10501 11.6073 4.87299C12.2674 4.93416 12.9352 4.87466 13.5787 4.71895C13.5547 4.18898 13.4914 3.65233 13.2823 3.15962C12.794 1.9334 11.7218 1.02305 10.539 0.490849C10.083 0.615973 9.687 0.88235 9.24712 1.04807ZM8.03647 1.35949C8.6532 1.76768 9.23155 2.30432 9.49793 3.01058C9.66198 3.43156 9.61527 3.90369 9.45066 4.31633C9.76875 4.46481 10.0885 4.61607 10.43 4.70394C10.7141 4.78457 11.0089 4.81238 11.2997 4.8552C11.3431 4.34469 11.2697 3.82139 11.05 3.35593C10.5962 2.40498 9.76041 1.6926 8.8534 1.18877C8.58646 1.26996 8.3123 1.31945 8.03647 1.35949ZM6.39595 1.24605C7.09275 2.40442 8.01868 3.45046 9.17538 4.16451C9.35834 3.73352 9.3133 3.22524 9.0725 2.82651C8.70658 2.20478 8.12211 1.73598 7.49426 1.39731C7.1289 1.35282 6.75241 1.35671 6.39595 1.24605ZM6.12234 1.41121C5.95384 2.33602 5.98443 3.31311 6.30808 4.20177C6.33978 4.34747 6.50272 4.37917 6.61227 4.44868C7.18674 4.74564 7.8524 4.99867 8.50527 4.8324C8.72938 4.78179 8.90011 4.62052 9.03413 4.44256C7.8068 3.72463 6.85585 2.61408 6.12234 1.41121ZM15.8899 4.14449C15.5834 4.5866 15.3599 5.08209 15.1764 5.58648C15.5256 5.2328 16.0361 5.04761 16.5299 5.14382C16.2658 5.82728 16.1156 6.67868 16.555 7.32266C16.8052 6.99066 17.0649 6.66144 17.3813 6.3895C17.1795 5.9157 17.1461 5.37627 17.2985 4.88356C17.4069 4.52876 17.5421 4.16562 17.8045 3.89424C18.1365 3.50385 18.6748 3.31978 19.1787 3.38317C19.1025 3.71295 19.117 4.0633 19.2521 4.37583C19.5541 5.1099 20.1419 5.66434 20.6524 6.25326C21.2524 6.94394 21.7802 7.76198 21.8769 8.69235C21.9409 9.20509 21.8146 9.71448 21.6612 10.2C22.1261 9.46257 22.433 8.58169 22.2996 7.70137C22.18 6.78712 21.635 5.99411 20.9899 5.36237C20.1324 4.52153 19.593 3.35259 19.5702 2.14694C18.1488 2.29376 16.7257 2.95219 15.8899 4.14449ZM17.9013 4.26906C17.5515 4.8285 17.3763 5.54755 17.6355 6.17929C17.9575 5.94851 18.3139 5.74219 18.7099 5.67601C18.7371 5.92626 18.8356 6.16317 18.9924 6.36003C19.4034 6.89056 19.9494 7.31153 20.2903 7.89767C20.6229 8.42987 20.7525 9.07663 20.6685 9.69669C20.5773 10.4563 20.2064 11.2265 19.5301 11.6281C19.8399 11.5597 20.153 11.4673 20.4138 11.2805C21.0617 10.8857 21.4131 10.146 21.5455 9.42197C21.684 8.67011 21.4259 7.90713 21.0283 7.27427C20.6057 6.58525 20.0017 6.03693 19.5101 5.40018C19.1208 4.90914 18.7927 4.31688 18.8189 3.67124C18.4463 3.73575 18.0998 3.94262 17.9013 4.26906ZM13.8795 4.97142C13.8417 5.44412 13.7455 5.91959 13.5269 6.34335C13.3117 6.78045 12.9469 7.12524 12.5426 7.38717C12.9664 7.27094 13.3746 7.08909 13.7227 6.81715C14.4801 6.22211 14.9639 5.31844 15.1224 4.37583C14.7415 4.6372 14.3216 4.83796 13.8795 4.97142ZM8.32009 5.18942C7.70559 5.2239 7.10276 5.03816 6.56056 4.76177C6.9148 5.43355 7.4431 6.00301 8.04426 6.46235C8.18106 6.55578 8.31063 6.68202 8.48303 6.70092C9.09808 6.80325 9.76208 6.78379 10.3221 6.48182C10.8265 6.22879 11.1179 5.69381 11.2452 5.16328C10.5712 5.09099 9.90722 4.91692 9.30718 4.59661C9.08363 4.92471 8.71826 5.1555 8.32009 5.18942ZM11.5539 5.19387C11.4387 5.73329 11.1729 6.26382 10.7203 6.59582C10.2537 6.94561 9.6592 7.07519 9.08529 7.07519C9.52406 7.28595 9.99676 7.4272 10.4772 7.5045C11.1629 7.55956 11.8708 7.40774 12.4664 7.06128C13.1499 6.63475 13.508 5.83895 13.5642 5.05484C12.9063 5.20721 12.2262 5.23113 11.5539 5.19387ZM15.475 5.73218C15.1397 6.03248 14.9673 6.47348 14.8978 6.90947C14.791 8.0773 15.0952 9.29073 15.7797 10.2472C16.2586 10.7377 16.9909 10.9685 17.6644 10.835C18.0353 10.7633 18.4129 10.6026 18.6376 10.2845C18.9907 9.81959 18.9779 9.18117 18.8133 8.6462C18.5959 7.86598 17.8779 7.38772 17.5237 6.6809C17.2351 6.93672 16.9971 7.24424 16.7757 7.55845C17.061 7.81592 17.353 8.07563 17.5576 8.40485C17.7873 8.76075 17.8029 9.25347 17.5671 9.60993C17.3824 9.91023 16.9971 10.0376 16.6601 9.99421C16.2363 9.88187 15.9555 9.45144 15.9221 9.0288C15.8815 8.51495 16.0939 8.02002 16.3759 7.60293C15.8743 7.00734 15.9054 6.15316 16.1001 5.44245C15.8732 5.48805 15.6452 5.5698 15.475 5.73218ZM3.06374 7.50895C2.73953 8.22522 2.72284 9.07718 3.04984 9.79568C3.28285 9.77454 3.54589 9.84906 3.6699 10.0632C3.79892 10.25 3.78056 10.4975 3.67435 10.6905C4.45902 11.4629 5.72139 11.6831 6.72405 11.2304C7.48092 10.9135 8.08318 10.2378 8.29117 9.44255C8.47691 8.81359 8.42797 8.12067 8.15881 7.52341C7.8524 6.81382 7.229 6.25492 6.49772 6.01079C5.19809 5.53754 3.58982 6.22211 3.06374 7.50895ZM17.7662 6.47014C17.9892 6.88222 18.2822 7.25147 18.5898 7.60349C19.0986 8.19964 19.3355 9.02713 19.1892 9.80068C19.0914 10.309 18.7416 10.7605 18.2722 10.9791C17.7651 11.2282 17.175 11.2232 16.6345 11.0975C16.9214 11.2783 17.2262 11.4395 17.5571 11.5235C17.809 11.5869 18.062 11.6837 18.3267 11.6492C18.9607 11.6119 19.6091 11.3266 19.9684 10.7856C20.3298 10.2261 20.4527 9.52318 20.3443 8.86975C20.242 8.27193 19.8727 7.76365 19.4612 7.33545C19.0997 6.93727 18.6676 6.57135 18.473 6.05417C18.2211 6.16428 17.983 6.30219 17.7662 6.47014ZM2.89635 6.73096C2.3002 7.23646 1.9137 7.97219 1.81472 8.7463C1.69793 9.66165 1.82417 10.646 2.35637 11.4206C2.92471 12.3215 3.9246 12.916 4.97898 13.0289C6.5461 13.2508 8.17883 12.267 8.73105 10.7883C9.01244 9.8385 9.0903 8.75353 8.60982 7.85263C8.86952 8.81414 8.64485 9.89411 7.9981 10.6554C7.34968 11.4223 6.31476 11.8594 5.31209 11.7548C4.60639 11.7115 3.95018 11.365 3.44078 10.8868C3.27061 10.9268 3.07709 10.9763 2.91915 10.8701C2.59105 10.6994 2.53766 10.22 2.78624 9.95695C2.15561 8.65454 2.61774 6.95173 3.81115 6.13759C3.4836 6.29775 3.16551 6.48404 2.89635 6.73096ZM13.617 7.26983C13.1538 7.57569 12.6066 7.71082 12.0677 7.8137C10.861 7.99833 9.60359 7.75364 8.54364 7.15249C8.78388 7.48282 8.98074 7.84651 9.10698 8.23579C9.37391 9.08886 9.27048 10.0109 9.03691 10.859C8.75886 11.7688 8.23945 12.6063 7.54153 13.253C8.03091 13.1396 8.52863 13.0206 9.0358 13.0734C10.1236 13.1902 11.1195 13.7607 11.8992 14.5098C12.3791 14.9658 12.7378 15.5319 13.0415 16.117C13.0448 15.4257 13.2194 14.7289 13.6009 14.1478C14.0413 13.4855 14.6397 12.9305 15.3254 12.5284C15.9521 12.1375 16.6734 11.9311 17.3958 11.8077C16.8252 11.6208 16.278 11.3194 15.8743 10.8684C14.7754 9.63941 14.3494 7.87877 14.6725 6.27161C14.38 6.66088 14.0374 7.01791 13.617 7.26983ZM16.2574 9.15559C16.3342 9.46479 16.6323 9.79123 16.9798 9.68056C17.3941 9.56322 17.537 9.02713 17.3474 8.67066C17.17 8.33311 16.8819 8.07118 16.6028 7.81926C16.3498 8.20854 16.149 8.68457 16.2574 9.15559ZM3.11546 10.1193C2.97476 10.1738 2.88968 10.3484 2.96531 10.4864C3.04928 10.676 3.36459 10.6732 3.43188 10.4691C3.52587 10.2828 3.31121 10.0253 3.11546 10.1193ZM1.95708 11.4128C1.94596 11.7726 1.88868 12.1291 1.80081 12.4783C1.96431 12.7258 2.20511 12.9049 2.44423 13.0734C2.66668 12.8687 3.05206 12.847 3.26449 13.0767C3.39963 13.2046 3.41909 13.397 3.43133 13.5722C4.38617 13.9031 5.47225 13.9721 6.42042 13.58C6.73184 13.4527 7.05049 13.3131 7.28962 13.0689C7.45033 12.9049 7.61939 12.7481 7.76008 12.5662C7.4064 12.822 7.02046 13.035 6.60115 13.1613C5.06406 13.7007 3.22557 13.1195 2.25849 11.8132C2.14671 11.6881 2.08999 11.5179 1.95708 11.4128ZM18.3668 12.0941C18.7772 12.2932 19.1703 12.5456 19.4718 12.8932C19.9684 13.4688 20.2208 14.2279 20.2692 14.9792C20.3004 15.6003 20.1886 16.2749 19.7687 16.7587C19.1453 17.5111 17.8512 17.5701 17.1806 16.8499C16.7852 16.4278 16.5911 15.8539 16.5294 15.2873C16.3264 15.285 16.1212 15.2739 15.9215 15.3178C15.7797 15.919 15.8003 16.5702 16.0522 17.1402C16.2752 17.6468 16.7107 18.0378 17.2073 18.2686C17.7517 18.5477 18.4079 18.61 18.9868 18.4037C19.7031 18.1329 20.2698 17.5612 20.6474 16.9066C21.0678 16.2098 21.2897 15.3684 21.1479 14.5576C20.9994 13.7213 20.5328 12.9622 19.9178 12.3855C19.821 12.2826 19.6742 12.2637 19.5446 12.2287C19.1576 12.1514 18.7638 12.0713 18.3668 12.0941ZM16.4893 12.3377C17.5209 12.4061 18.4858 13.104 18.8461 14.0766C19.1231 14.8596 18.9012 15.7349 18.4585 16.4123C18.0526 15.899 17.4931 15.4891 16.8497 15.3401C16.912 15.78 17.0649 16.2165 17.3441 16.5674C17.888 17.2136 19.0258 17.2069 19.5546 16.5435C19.9194 16.0764 20.0051 15.4513 19.9528 14.8757C19.8872 14.2534 19.6792 13.6284 19.2743 13.1435C18.8033 12.6107 18.1349 12.2548 17.4347 12.1408C17.1133 12.1558 16.7952 12.2376 16.4893 12.3377ZM20.5284 12.5918C20.8848 13.0333 21.1796 13.5333 21.3447 14.0783C21.5577 14.7439 21.5383 15.4669 21.3436 16.1342C21.7863 15.7116 22.3235 15.3951 22.8963 15.1844C22.4058 14.1022 21.6028 13.1307 20.5284 12.5918ZM15.1797 12.9944C14.5585 13.4059 14.0408 13.9704 13.6821 14.6238C13.4558 15.0626 13.3629 15.5592 13.3501 16.0502C13.5531 15.1677 14.0914 14.3157 14.9339 13.927C15.6118 13.6134 16.4048 13.6262 17.1066 13.8553C17.794 14.1161 18.379 14.6783 18.592 15.3918C18.7327 14.8635 18.6787 14.2735 18.3762 13.8102C17.9552 13.1579 17.2267 12.6791 16.4404 12.6502C15.9994 12.6279 15.5362 12.723 15.1797 12.9944ZM1.20522 13.7963C1.81861 14.1439 2.49595 14.3847 3.19554 14.4776C4.06474 14.5893 4.9762 14.4642 5.76921 14.0849C5.39495 14.1333 5.01735 14.1806 4.63975 14.1411C4.17707 14.1255 3.73218 13.9865 3.29564 13.8436C3.13881 13.9904 2.91637 14.1039 2.70004 14.0154C2.4003 13.9504 2.24125 13.6234 2.29297 13.3364C2.07553 13.1968 1.86866 13.0389 1.69182 12.8498C1.55668 13.1785 1.40097 13.4988 1.20522 13.7963ZM2.78068 13.2297C2.62274 13.2708 2.54711 13.4649 2.62997 13.6045C2.72952 13.8013 3.0554 13.7452 3.10155 13.5366C3.16217 13.3526 2.95919 13.1651 2.78068 13.2297ZM7.65164 13.5589C8.40239 13.5516 9.13646 13.8419 9.72927 14.2918C10.1458 14.6399 10.4161 15.1399 10.5145 15.671C11.1006 15.7722 11.6484 16.1031 11.9943 16.5897C12.3686 17.148 12.4297 17.8498 12.3636 18.5027C12.7606 18.669 13.0865 18.9876 13.2333 19.3958C13.2934 19.0221 13.3201 18.6417 13.2884 18.2636C13.1744 17.0429 12.7089 15.8361 11.8775 14.9236C11.3359 14.3441 10.673 13.8708 9.92558 13.5967C9.20708 13.2942 8.38404 13.312 7.65164 13.5589ZM6.03392 14.5899C5.58736 15.0581 5.24202 15.6587 5.19364 16.3144C5.1397 16.9467 5.28595 17.6129 5.67579 18.1217C6.0139 18.5705 6.60004 18.783 7.15003 18.7468C7.66666 18.7518 8.2211 18.5744 8.54253 18.1496C8.84227 17.7503 8.96907 17.247 9.01022 16.7571C9.05304 16.1959 8.85395 15.5792 8.37514 15.25C8.1388 15.0676 7.83572 14.9964 7.54098 14.9992C6.85363 15.0209 6.19964 15.5703 6.11956 16.2655C6.07897 16.6814 6.19964 17.1547 6.54777 17.4155C6.89478 17.6524 7.41752 17.7063 7.74952 17.4155C8.01423 17.1886 8.19719 16.8082 8.0576 16.464C7.97474 16.2132 7.66054 16.0686 7.42197 16.1904C7.26682 16.2554 7.17394 16.4262 7.17561 16.5902C7.21343 16.6948 7.31631 16.8327 7.19841 16.9256C7.05216 17.0268 6.92203 16.8666 6.88755 16.7348C6.78745 16.3706 7.03603 15.9568 7.39694 15.8567C7.64163 15.7983 7.92692 15.8345 8.11655 16.0113C8.36847 16.2343 8.45467 16.6002 8.39627 16.9228C8.28561 17.3932 7.91135 17.8298 7.41808 17.9071C6.94094 17.9571 6.39984 17.8126 6.10733 17.4083C5.8315 17.0384 5.75531 16.5446 5.83873 16.0975C6.01668 15.1983 6.98042 14.5554 7.87909 14.7111C8.40183 14.809 8.87675 15.1571 9.10476 15.6415C9.37725 16.1959 9.36224 16.8477 9.20653 17.4338C9.08307 17.9838 8.76275 18.5183 8.25669 18.793C8.32231 19.0221 8.44521 19.2456 8.64319 19.3858C8.88454 19.5593 9.19874 19.5771 9.48514 19.5593C9.52851 19.0677 9.66865 18.5894 9.85384 18.134C10.133 17.3955 10.336 16.598 10.2192 15.8044C10.1425 15.2539 9.85439 14.7228 9.38504 14.4114C8.82448 14.0466 8.14825 13.8197 7.47424 13.8853C6.92759 13.932 6.42097 14.2101 6.03392 14.5899ZM14.7343 14.3914C14.0152 14.9035 13.6315 15.7878 13.592 16.6542C13.5714 17.2236 13.6843 17.8192 14.0141 18.2947C14.4862 19.0004 15.2325 19.5248 16.0628 19.7111C15.0351 19.1138 14.395 17.8949 14.5263 16.7081C14.5813 16.1464 14.8255 15.5614 15.3143 15.245C15.7152 14.9658 16.2307 14.9291 16.7023 14.9964C17.3291 15.0593 17.8818 15.409 18.3484 15.8128C18.3217 15.4191 18.1488 15.0431 17.8863 14.7517C17.1233 13.867 15.688 13.7602 14.7343 14.3914ZM14.8783 16.4773C14.5674 17.832 15.4806 19.3391 16.8291 19.6811C17.4987 19.8318 18.2049 19.6666 18.7933 19.3313C19.2093 19.071 19.5424 18.7012 19.8321 18.3097C19.2604 18.7307 18.5208 18.947 17.8168 18.7946C17.0666 18.63 16.3242 18.2296 15.9221 17.554C15.5295 16.9333 15.4705 16.1615 15.5773 15.4508C15.2036 15.6676 14.965 16.0608 14.8783 16.4773ZM10.5579 15.9957C10.599 16.6786 10.4706 17.3643 10.2348 18.0044C9.9684 18.6656 9.71537 19.3691 9.796 20.0943C9.83882 20.5458 10.1041 20.969 10.4967 21.1987C10.9166 21.4423 11.4287 21.5446 11.9064 21.4478C12.4253 21.3349 12.7773 20.8606 12.9158 20.3723C13.0281 20.0231 13.0331 19.621 12.8418 19.2979C12.6077 18.8697 12.0727 18.645 11.6011 18.7529C11.1696 18.8731 10.8026 19.3074 10.886 19.7723C10.9171 20.1538 11.3142 20.5191 11.7018 20.3751C11.8975 20.2889 12.1044 19.9725 11.8764 19.8134C11.7435 19.7395 11.7824 19.5504 11.927 19.5193C12.2801 19.5765 12.3825 20.0409 12.2006 20.3111C11.9976 20.716 11.4271 20.84 11.0623 20.5809C10.5384 20.2622 10.4155 19.4837 10.7731 18.9976C11.0495 18.5772 11.5694 18.3598 12.0644 18.4209C12.0961 17.9532 12.0755 17.4678 11.8814 17.034C11.6451 16.4962 11.1229 16.1214 10.5579 15.9957ZM5.24869 18.0617C5.36548 18.4866 5.56734 18.8875 5.83539 19.2373C6.4321 19.9942 7.37025 20.4046 8.30507 20.5497C8.8217 20.6287 9.33777 20.7521 9.80824 20.9863C9.5869 20.6571 9.48514 20.2605 9.47568 19.8668C9.20208 19.8813 8.91735 19.8685 8.66432 19.7523C8.31897 19.5982 8.07874 19.2723 7.96807 18.9175C7.44644 19.071 6.87476 19.1122 6.3509 18.9453C5.88655 18.8002 5.51563 18.4587 5.24869 18.0617ZM10.9127 21.7031C11.1234 21.905 11.3392 22.1052 11.5044 22.3476C11.7107 22.148 11.9198 21.9506 12.1061 21.732C11.7146 21.8555 11.3036 21.7937 10.9127 21.7031Z" fill="#2B666F"/>
<path d="M4.89671 6.73656C5.77536 6.27444 6.95209 6.65593 7.43257 7.514C7.76178 8.09681 7.77902 8.85312 7.44591 9.4387C7.26017 9.81074 6.92651 10.0788 6.56615 10.2706C6.10736 10.4619 5.57961 10.5142 5.10692 10.3402C4.7093 10.2106 4.3773 9.93419 4.12761 9.60386C3.80562 9.13339 3.69607 8.52167 3.85734 7.97279C3.99025 7.47396 4.33281 7.03742 4.78437 6.78772C4.81218 6.77493 4.8689 6.74935 4.89671 6.73656ZM5.00904 7.00906C4.81051 7.13474 4.59863 7.25208 4.4596 7.44894C4.07088 7.92274 3.98079 8.6151 4.23883 9.17232C4.52411 9.80629 5.23371 10.2178 5.92662 10.1238C6.56782 10.0682 7.12893 9.58273 7.30855 8.97157C7.43702 8.58062 7.38474 8.15075 7.22236 7.77816C7.02827 7.39555 6.69294 7.07245 6.27808 6.94399C5.86823 6.78884 5.40388 6.82776 5.00904 7.00906Z" fill="#2B666F"/>
<path d="M5.55702 7.3227C5.8017 7.18701 6.10534 7.2137 6.35392 7.32603C6.63865 7.48675 6.8483 7.80373 6.8166 8.13907C6.82383 8.69684 6.19932 9.11281 5.68047 8.93708C5.32734 8.81696 5.05374 8.46662 5.07542 8.08568C5.06708 7.76369 5.27451 7.46451 5.55702 7.3227ZM5.67825 7.61299C5.54033 7.69474 5.42355 7.82542 5.40075 7.98892C5.31233 8.32425 5.61541 8.69684 5.96576 8.66181C6.32556 8.66737 6.61029 8.26753 6.47626 7.93053C6.38284 7.60854 5.96687 7.43726 5.67825 7.61299Z" fill="#2B666F"/>
<path d="M17.2252 24.814C17.7087 24.6411 18.2619 24.6239 18.7356 24.8371C19.0898 24.9879 19.3964 25.2709 19.5403 25.6316C19.7133 26.0605 19.6833 26.5552 19.473 26.9655C19.3487 27.161 19.2126 27.3477 19.0657 27.5266C18.7921 27.7929 18.5602 28.098 18.285 28.3633C18.0713 28.6433 17.7976 28.8689 17.5839 29.1484C18.3022 29.1504 19.02 29.1494 19.7383 29.1489C19.7187 29.4162 19.731 29.684 19.73 29.9512C18.5823 29.935 17.4331 29.9655 16.2858 29.936C16.2912 29.7464 16.2893 29.5567 16.2873 29.3671C16.5797 29.1042 16.8086 28.7819 17.0941 28.5117C17.3368 28.2125 17.6237 27.955 17.8679 27.6573C18.1794 27.3099 18.5479 26.995 18.7586 26.5724C18.8702 26.3248 18.8599 26.0064 18.6953 25.7848C18.369 25.3422 17.633 25.3348 17.269 25.7338C17.0739 25.9209 17.0169 26.203 16.986 26.4609C16.7157 26.4584 16.445 26.4584 16.1748 26.4609C16.1876 26.0737 16.2883 25.6851 16.5128 25.3662C16.7089 25.1353 16.9388 24.925 17.2252 24.814Z" fill="#2B666F"/>
<path d="M20.303 25.5421C20.7835 24.7162 21.9489 24.4529 22.7787 24.8887C23.3531 25.181 23.6926 25.7868 23.8307 26.397C23.9938 27.1532 23.9569 27.9575 23.698 28.688C23.4995 29.1779 23.1521 29.6402 22.653 29.848C22.1975 30.0519 21.6585 30.0446 21.1982 29.8623C20.585 29.6274 20.1635 29.0275 20.0711 28.3874C20.3497 28.3898 20.6282 28.3834 20.9073 28.3913C20.9604 28.6777 21.1485 28.9253 21.3824 29.0924C21.7421 29.2983 22.2358 29.2752 22.5518 28.9961C22.9379 28.6669 23.0671 28.1432 23.1202 27.6587C22.8426 27.9565 22.4835 28.2026 22.0698 28.2468C21.5023 28.3235 20.8936 28.1274 20.5044 27.702C19.9615 27.1374 19.8868 26.1985 20.303 25.5421ZM20.9633 26.0295C20.8474 26.3076 20.811 26.6338 20.954 26.91C21.1176 27.301 21.5514 27.5364 21.9666 27.5162C22.4609 27.501 22.9099 27.0893 22.9497 26.5931C23.0229 26.0575 22.5955 25.522 22.0624 25.4571C21.6158 25.3761 21.1702 25.6379 20.9633 26.0295Z" fill="#2B666F"/>
<path d="M1.99141 24.8356C2.65862 24.5855 3.42114 24.644 4.05691 24.958C4.36054 25.1289 4.63863 25.35 4.86169 25.6203C5.01449 25.8197 5.13683 26.0389 5.26359 26.255C4.93588 26.3361 4.618 26.4535 4.28832 26.5258C4.12815 26.1568 3.80044 25.8708 3.43245 25.7185C2.6935 25.4434 1.76589 25.7976 1.43917 26.5228C1.22495 26.9419 1.18466 27.4514 1.33943 27.897C1.46324 28.3417 1.81109 28.6915 2.2184 28.8915C2.5746 29.0266 2.97159 29.0723 3.34155 28.9656C3.75426 28.8566 4.09474 28.5362 4.27505 28.156C4.59982 28.2346 4.92458 28.3225 5.24541 28.4188C5.01301 28.9258 4.63224 29.3725 4.14093 29.6432C3.52727 30.0009 2.76523 30.0583 2.08918 29.8569C1.15125 29.5547 0.410836 28.7018 0.281128 27.7192C0.177459 27.0829 0.339103 26.427 0.671235 25.8807C1.00042 25.4178 1.44899 25.0228 1.99141 24.8356Z" fill="black"/>
<path d="M6.90164 24.959C7.51333 24.6607 8.24048 24.5964 8.88804 24.8145C9.42358 24.9668 9.87313 25.3373 10.2112 25.7711C10.5919 26.3062 10.7855 26.9817 10.7049 27.6372C10.6136 28.5294 10.0254 29.3523 9.21035 29.7257C8.71854 29.9621 8.14959 30.0402 7.61307 29.94C6.70069 29.7872 5.89542 29.1111 5.59817 28.2341C5.35153 27.5561 5.39182 26.7695 5.73525 26.1318C5.97501 25.6213 6.40836 25.2218 6.90164 24.959ZM7.24704 25.8404C6.8869 26.0752 6.5872 26.4383 6.50073 26.8673C6.37102 27.3301 6.44177 27.844 6.69136 28.2547C7.06918 28.9558 8.0017 29.2231 8.72197 28.9254C8.97549 28.7893 9.22607 28.6316 9.38575 28.3844C9.77487 27.8602 9.81418 27.1267 9.54592 26.541C9.37052 26.1868 9.07327 25.8905 8.70527 25.7397C8.23852 25.5412 7.68382 25.5884 7.24704 25.8404Z" fill="black"/>
<path d="M11.3711 24.7379C12.1518 24.7433 12.933 24.7374 13.7137 24.7408C14.0488 24.7447 14.3848 24.8287 14.6693 25.0061C15.1159 25.2881 15.4294 25.7726 15.4849 26.2998C15.536 26.682 15.4466 27.0741 15.2564 27.4077C14.9558 27.8872 14.4187 28.212 13.8508 28.237C13.3624 28.2719 12.8721 28.2434 12.3827 28.2527C12.3822 28.8094 12.3832 29.3666 12.3822 29.9232C12.0471 29.9208 11.7121 29.9281 11.3775 29.9193C11.3696 28.1923 11.3824 26.4648 11.3711 24.7379ZM12.3827 25.6365V27.3561C12.8053 27.3531 13.2283 27.362 13.6513 27.3517C13.9716 27.3527 14.3102 27.1822 14.4418 26.879C14.6 26.5754 14.5622 26.1745 14.3362 25.9136C14.1692 25.7239 13.9097 25.634 13.6611 25.6355C13.2352 25.6375 12.8087 25.636 12.3827 25.6365Z" fill="black"/>
</svg>
