<svg width="24" height="24" viewBox="0 0 24 24" fill="none" xmlns="http://www.w3.org/2000/svg">
<g clip-path="url(#clip0_73_339)">
<path d="M19.4999 24C19.3 24.0002 19.1047 23.9404 18.9391 23.8285C18.7735 23.7165 18.6452 23.5576 18.5709 23.372L17.7269 21.259L15.6109 20.368C15.4294 20.2879 15.2756 20.1559 15.1688 19.9886C15.0621 19.8213 15.0071 19.6263 15.0109 19.4279C15.0146 19.2295 15.0769 19.0366 15.1899 18.8735C15.3028 18.7104 15.4615 18.5843 15.6459 18.511L17.7339 17.72L18.5709 15.628C18.6478 15.4452 18.7771 15.2892 18.9423 15.1794C19.1076 15.0697 19.3015 15.0112 19.4999 15.0112C19.6982 15.0112 19.8922 15.0697 20.0574 15.1794C20.2227 15.2892 20.3519 15.4452 20.4289 15.628L21.2699 17.728L23.3699 18.569C23.5531 18.6456 23.7095 18.7747 23.8195 18.94C23.9296 19.1053 23.9883 19.2994 23.9883 19.498C23.9883 19.6966 23.9296 19.8907 23.8195 20.056C23.7095 20.2213 23.5531 20.3504 23.3699 20.427L21.2699 21.268L20.4289 23.368C20.3551 23.5543 20.2272 23.7141 20.0615 23.8268C19.8959 23.9395 19.7002 23.9999 19.4999 24ZM9.99987 21C9.56784 21.0052 9.14575 20.8704 8.79676 20.6156C8.44777 20.3609 8.19064 20.0001 8.06387 19.587L6.44987 14.54L1.38687 12.846C0.978229 12.7094 0.623584 12.4465 0.374154 12.0952C0.124723 11.7439 -0.00658046 11.3223 -0.00079315 10.8915C0.00499415 10.4607 0.147573 10.0429 0.40635 9.69839C0.665128 9.3539 1.02671 9.10058 1.43887 8.97502L6.46187 7.44102L8.15387 2.38702C8.27967 1.97189 8.53989 1.61035 8.89361 1.35927C9.24733 1.1082 9.67448 0.981818 10.1079 1.00002C10.54 1.0006 10.9603 1.14111 11.3058 1.40052C11.6514 1.65992 11.9037 2.02426 12.0249 2.43902L13.5569 7.45402L18.5869 9.06402C18.9926 9.2001 19.3453 9.4602 19.5952 9.80759C19.8451 10.155 19.9795 10.5721 19.9795 11C19.9795 11.4279 19.8451 11.8451 19.5952 12.1924C19.3453 12.5398 18.9926 12.7999 18.5869 12.936L13.5479 14.548L11.9359 19.587C11.8091 20.0001 11.552 20.3609 11.203 20.6156C10.854 20.8704 10.4319 21.0052 9.99987 21ZM10.1119 3.02302L8.19987 8.56402C8.14946 8.71526 8.06361 8.85226 7.9495 8.96359C7.83539 9.07492 7.69631 9.15736 7.54387 9.20402L2.02287 10.888L7.56387 12.805C7.71294 12.8547 7.84821 12.9388 7.95871 13.0505C8.06921 13.1622 8.15183 13.2984 8.19987 13.448L9.96987 18.978L11.7999 13.448C11.8484 13.2962 11.9325 13.1581 12.0453 13.0454C12.158 12.9327 12.296 12.8486 12.4479 12.8L17.9779 11.031C17.985 11.0291 17.9917 11.026 17.9979 11.022L12.4479 9.20002C12.2938 9.15077 12.1541 9.0649 12.0405 8.94977C11.9269 8.83465 11.843 8.6937 11.7959 8.53902L10.1119 3.02302ZM20.4999 7.00002C20.2769 7.00001 20.0604 6.92552 19.8847 6.78836C19.7089 6.65121 19.584 6.45926 19.5299 6.24302L19.1729 4.81302L17.7399 4.42802C17.5245 4.37015 17.3346 4.24194 17.2005 4.06378C17.0663 3.88562 16.9956 3.66773 16.9995 3.44474C17.0034 3.22176 17.0817 3.00648 17.222 2.83313C17.3624 2.65978 17.5566 2.5383 17.7739 2.48802L19.1739 2.16302L19.5299 0.757017C19.5841 0.54079 19.7089 0.348869 19.8847 0.211736C20.0604 0.0746033 20.277 0.00012207 20.4999 0.00012207C20.7228 0.00012207 20.9393 0.0746033 21.115 0.211736C21.2908 0.348869 21.4157 0.54079 21.4699 0.757017L21.8239 2.17502L23.2419 2.53002C23.4581 2.58421 23.65 2.70909 23.7871 2.88484C23.9243 3.06058 23.9988 3.2771 23.9988 3.50002C23.9988 3.72293 23.9243 3.93946 23.7871 4.1152C23.65 4.29094 23.4581 4.41583 23.2419 4.47002L21.8239 4.82502L21.4699 6.24302C21.4157 6.45926 21.2908 6.65121 21.1151 6.78836C20.9393 6.92552 20.7228 7.00001 20.4999 7.00002Z" fill="#0096D3"/>
</g>
<defs>
<clipPath id="clip0_73_339">
<rect width="24" height="24" fill="white"/>
</clipPath>
</defs>
</svg>
